<?xml version="1.0" standalone="no"?>
<!DOCTYPE svg PUBLIC "-//W3C//DTD SVG 20010904//EN"
 "http://www.w3.org/TR/2001/REC-SVG-20010904/DTD/svg10.dtd">
<svg version="1.0" xmlns="http://www.w3.org/2000/svg"
 width="512.000000pt" height="512.000000pt" viewBox="0 0 512.000000 512.000000"
 preserveAspectRatio="xMidYMid meet">

<g transform="translate(0.000000,512.000000) scale(0.100000,-0.100000)"
fill="#000000" stroke="none">
<path d="M1803 4946 c-202 -39 -355 -119 -506 -265 -126 -122 -211 -267 -259
-442 -33 -122 -33 -356 0 -479 45 -166 139 -326 266 -449 l55 -55 -129 -62
c-206 -99 -347 -201 -506 -366 -233 -242 -382 -514 -463 -846 -47 -194 -53
-287 -49 -837 3 -485 4 -502 25 -558 41 -109 87 -181 158 -252 81 -82 160
-127 271 -155 73 -19 113 -20 748 -20 634 0 673 1 706 19 104 55 116 198 22
269 l-35 27 -379 3 c-208 1 -378 4 -378 6 0 2 12 35 28 72 l27 69 3 450 3 451
-23 33 c-33 49 -69 72 -120 78 -58 7 -118 -23 -149 -74 -24 -38 -24 -38 -29
-463 -5 -414 -6 -426 -27 -466 -33 -61 -106 -122 -171 -140 -144 -42 -289 31
-341 171 -22 59 -22 64 -18 580 3 488 5 526 25 613 33 141 77 263 138 383 363
709 1171 990 1892 658 45 -21 82 -42 82 -48 0 -5 -16 -19 -35 -31 -52 -32
-122 -115 -154 -184 -16 -35 -63 -202 -112 -396 -71 -289 -83 -346 -82 -415 2
-136 52 -255 148 -355 l44 -45 -35 -270 c-53 -407 -48 -492 39 -660 79 -153
237 -276 412 -320 88 -22 1362 -22 1450 0 264 67 453 282 485 551 10 81 7 115
-28 394 l-39 305 54 58 c94 103 137 214 136 352 0 79 -10 131 -82 415 -45 179
-95 352 -110 385 -52 111 -151 200 -277 247 -59 22 -64 23 -699 26 l-640 3
-70 56 c-131 106 -320 216 -456 267 l-45 17 71 72 c367 369 377 945 23 1332
-110 120 -300 234 -463 276 -103 27 -302 34 -402 15z m365 -339 c100 -35 173
-80 248 -154 76 -76 124 -153 160 -258 24 -69 28 -96 28 -195 0 -99 -4 -126
-28 -195 -77 -224 -247 -378 -473 -429 -333 -75 -679 143 -758 476 -53 226 22
464 197 623 73 66 194 129 288 150 96 22 245 14 338 -18z m948 -2034 c-2 -10
-23 -175 -46 -368 -23 -192 -46 -373 -51 -402 -20 -101 -103 -173 -202 -173
-120 0 -210 89 -210 205 1 54 142 624 167 673 33 63 84 81 234 82 103 0 113
-2 108 -17z m684 5 c0 -7 18 -155 40 -328 22 -173 40 -340 40 -371 0 -146
-135 -261 -288 -246 -111 12 -212 102 -228 205 -5 33 5 151 36 400 l43 352
179 0 c136 0 178 -3 178 -12z m596 -7 c23 -10 51 -32 62 -49 14 -19 50 -142
102 -353 77 -307 81 -327 70 -375 -29 -134 -180 -205 -301 -141 -61 33 -97 88
-109 167 -17 113 -90 717 -90 744 l0 26 113 0 c88 0 121 -4 153 -19z m-1034
-1202 c115 -58 277 -75 402 -43 73 19 181 73 232 118 l38 33 54 -44 c93 -75
180 -111 296 -122 l71 -6 32 -250 c20 -147 31 -268 27 -295 -13 -105 -84 -204
-180 -251 l-49 -24 -665 0 -665 0 -47 23 c-58 28 -121 88 -147 139 -40 80 -41
128 -7 403 l31 255 72 6 c116 11 222 55 303 126 l44 40 50 -39 c28 -22 76 -53
108 -69z"/>
<path d="M3553 1109 c-75 -22 -126 -116 -104 -191 25 -81 87 -124 170 -116 87
9 141 70 141 161 0 58 -32 105 -90 135 -47 24 -67 25 -117 11z"/>
</g>
</svg>
