<?xml version="1.0" standalone="no"?>
<!DOCTYPE svg PUBLIC "-//W3C//DTD SVG 20010904//EN"
 "http://www.w3.org/TR/2001/REC-SVG-20010904/DTD/svg10.dtd">
<svg version="1.0" xmlns="http://www.w3.org/2000/svg"
 width="64.000000pt" height="64.000000pt" viewBox="0 0 64.000000 64.000000"
 preserveAspectRatio="xMidYMid meet">

<g transform="translate(0.000000,64.000000) scale(0.100000,-0.100000)"
fill="#000000" stroke="none">
<path d="M80 520 c0 -5 23 -10 50 -10 28 0 50 -2 50 -5 0 -5 44 -216 55 -262
5 -22 9 -23 129 -23 104 0 127 3 144 18 22 19 69 193 57 211 -4 7 -58 11 -146
11 -91 0 -138 -4 -134 -10 4 -6 60 -10 136 -10 119 0 130 -1 125 -17 -3 -10
-12 -51 -21 -91 -12 -50 -23 -75 -36 -82 -11 -6 -66 -9 -126 -8 l-108 3 -27
130 c-15 72 -30 136 -33 143 -5 15 -115 17 -115 2z"/>
<path d="M276 184 c-21 -20 -20 -30 5 -55 18 -18 23 -19 42 -6 28 18 32 40 12
61 -21 20 -39 20 -59 0z m49 -14 c4 -6 1 -17 -5 -26 -15 -18 -42 0 -33 22 6
16 29 19 38 4z"/>
<path d="M420 185 c-7 -8 -10 -25 -6 -39 11 -44 76 -38 76 7 0 43 -44 63 -70
32z m48 -28 c2 -12 -3 -17 -17 -17 -12 0 -21 6 -21 13 0 31 32 34 38 4z"/>
</g>
</svg>
